<svg id="Layer_1" data-name="Layer 1" xmlns="http://www.w3.org/2000/svg" viewBox="0 0 984.41 682.59"><defs><style>.cls-1{fill:#fff;}</style></defs><path class="cls-1" d="M636.16,291.45c12.52-1.21,24.55-2.78,36.63-3.42,9.88-.52,20-1,29.73.39,15.48,2.13,20.47,13.49,13.1,27.39-5.58,10.51-13.93,18.65-23,26-12.42,10.1-25,20-37.65,29.82-2.67,2.06-3.42,4.08-2.92,7.48,4.24,28.27,8.55,56.52,12.11,84.88a96.94,96.94,0,0,1-.64,25.51c-2,13.85-9.77,20.69-23.69,22.07-11.59,1.15-22.9-1-34.12-3.76-27.48-6.85-53-18.64-78-31.67-4.89-2.56-8.16-2.65-12.72.86-14.27,11-28.74,21.77-43.67,31.84-12.39,8.36-25.74,15.17-41.08,16.53a32.09,32.09,0,0,1-6,.05c-10.34-.94-15.69-6.65-13.87-16.78,1.65-9.24,4.05-18.65,8-27.14,12.14-26.37,24.5-52.71,38-78.4q33.18-63.11,68.09-125.3c11.19-19.84,24.07-38.78,36.94-57.6,4.19-6.12,10.34-11.22,16.44-15.61,9.19-6.62,18-5.26,26.05,2.6,8.27,8,13.62,17.93,17,28.6,5.22,16.56,9.43,33.44,14,50.2.46,1.62.78,3.27,1.28,5.42m-15.42,13.17c-34.4,3.59-67.64,7-100.85,10.67-1.5.16-3.34,2-4.13,3.59-17.82,35.22-35.47,70.51-53.27,105.73-1.72,3.39-1.21,5.24,2,7.06q25.37,14.32,50.57,28.92c2.65,1.55,4.35,1.05,6.59-.66,10.62-8.11,21.46-15.94,32.07-24.06q38.31-29.37,76.41-59c1.54-1.21,3.2-3.83,3-5.51-3.09-21.21-6.48-42.37-10-63.53-.22-1.29-1.72-2.37-2.4-3.24m14.43,80.74c-35.78,27.51-70.75,54.4-106,81.52a15.52,15.52,0,0,0,2,1.58c19.14,9.65,38.38,19.25,59.19,24.71,11.76,3.09,24,4.74,36.14,5.93,8.11.8,14-3.7,15.78-11.62,1.66-7.31,2.81-15.08,2.26-22.51-1.41-19.17-3.81-38.29-6-57.41-.82-7.16-2.17-14.26-3.41-22.2M523.92,303.3l96.72-10.52a19.69,19.69,0,0,0-.19-3.42c-3.67-15.37-7-30.85-11.26-46.05A79.29,79.29,0,0,0,600.25,224c-6.12-10-14.26-11.31-22.75-3.26a100.68,100.68,0,0,0-15.58,19c-11.26,17.85-21.85,36.11-32.68,54.23-1.71,2.86-3.29,5.79-5.32,9.38M457.84,435.65a10.87,10.87,0,0,0-1.35,1.83C448.85,455,441.12,472.43,433.73,490a36.27,36.27,0,0,0-2.27,11.36c-.49,6.92,3.12,10.23,9.72,8.39,6.07-1.68,12.33-3.72,17.6-7C475.6,492.18,492,480.93,508.57,470c.85-.56,1.79-1,3-1.72-18.56-11.25-36-21.86-53.71-32.59m191.47-71.89c3.25-2.51,5.82-4.39,8.25-6.43,13.24-11,26.59-21.85,39.55-33.16,3.53-3.07,6.26-7.32,8.56-11.48,3.12-5.63,1.08-10-5.16-11.78a30,30,0,0,0-9.18-1.18c-11.31.48-22.6,1.25-33.9,2-6.12.41-12.23,1-18.87,1.62,3.61,20.2,7.09,39.8,10.75,60.39" transform="translate(-47.8 -198.7)"/><path class="cls-1" d="M560.79,198.7c-16.8,12.19-26.42,28.85-36.47,45-32.75,52.64-63.05,106.7-91.91,161.57-13.43,25.55-26,51.58-38.56,77.57-3.5,7.22-5.88,15-8.19,22.76-2.42,8.14-2.82,16.09,6.76,20.89l-.66,1c-4.05-.63-8.2-.83-12.08-2-7.34-2.15-11.91-7.62-11.15-15.23s2-15.66,5.32-22.37c12.89-26,26.59-51.64,40.27-77.24,2.13-4,1.85-5.85-1.85-8.55-14.46-10.51-28.72-21.3-40.57-34.87-5.91-6.76-10.95-13.95-10.65-23.58.24-7.8,3.67-13.62,10.21-17.74,8-5.05,17.16-6.24,26.21-7.58,23.66-3.5,47.36-6.7,71-10.32,2.12-.33,4.5-2.51,5.72-4.47,12.93-20.67,25.21-41.76,38.57-62.13,7.36-11.23,16.06-21.69,24.9-31.86,5.57-6.42,13.15-10.26,23.13-10.88M420.19,400.62c14.87-27.28,29.08-53.35,43.52-79.78a49.33,49.33,0,0,0-5.37,0c-18.34,2.29-36.71,4.47-55,7a131.13,131.13,0,0,0-21.87,4.48c-10.57,3.37-13.44,10.82-8.86,20.9a31.66,31.66,0,0,0,4.83,7.92c5.1,5.85,10.18,11.78,15.92,17,8.47,7.67,17.5,14.72,26.84,22.48" transform="translate(-47.8 -198.7)"/><path class="cls-1" d="M47.8,717.74a7.87,7.87,0,0,1,7.93-7.93H75.92c22.66,0,38.31,15.55,38.31,35.84v.2c0,20.29-15.65,36-38.31,36H55.73A7.87,7.87,0,0,1,47.8,774Zm28.12,49.85c13,0,21.73-8.75,21.73-21.52v-.21c0-12.77-8.75-21.73-21.73-21.73H63.66v43.46Z" transform="translate(-47.8 -198.7)"/><path class="cls-1" d="M136.67,771.71,161.8,715c1.75-3.91,4.94-6.28,9.27-6.28H172c4.32,0,7.41,2.37,9.17,6.28l25.13,56.75a7.62,7.62,0,0,1,.82,3.19,7.52,7.52,0,0,1-7.52,7.62c-3.71,0-6.18-2.16-7.62-5.46l-4.84-11.33H155.42l-5,11.84a7.79,7.79,0,0,1-7.31,4.94,7.3,7.3,0,0,1-7.31-7.41A8.48,8.48,0,0,1,136.67,771.71Zm44.6-20-10-23.79-10,23.79Z" transform="translate(-47.8 -198.7)"/><path class="cls-1" d="M235,717.74a7.87,7.87,0,0,1,7.93-7.93h25c9.17,0,16.27,2.57,21,7.31,4,4,6.18,9.68,6.18,16.48v.2c0,11.33-5.67,18.33-14.42,21.94l11,13.39c1.55,2,2.57,3.6,2.57,6.08a7.38,7.38,0,0,1-7.52,7.31A9.51,9.51,0,0,1,279,778.4l-15.45-19.57H250.87v15.76a7.93,7.93,0,0,1-15.86,0V717.74ZM267,744.83c7.72,0,12.15-4.12,12.15-10.2v-.2c0-6.8-4.74-10.3-12.46-10.3H250.88v20.7Z" transform="translate(-47.8 -198.7)"/><path class="cls-1" d="M320.9,771.71,346,715c1.75-3.91,4.94-6.28,9.27-6.28h.93c4.32,0,7.41,2.37,9.17,6.28l25.13,56.75a7.62,7.62,0,0,1,.82,3.19,7.52,7.52,0,0,1-7.52,7.62c-3.71,0-6.18-2.16-7.62-5.46l-4.84-11.33H339.65l-5,11.84a7.79,7.79,0,0,1-7.31,4.94A7.3,7.3,0,0,1,320,775.1,8.48,8.48,0,0,1,320.9,771.71Zm44.6-20-10-23.79-10,23.79Z" transform="translate(-47.8 -198.7)"/><path class="cls-1" d="M461.58,771.71,486.71,715c1.75-3.91,4.94-6.28,9.27-6.28h.93c4.33,0,7.42,2.37,9.17,6.28l25.13,56.75a7.62,7.62,0,0,1,.82,3.19,7.52,7.52,0,0,1-7.52,7.62c-3.71,0-6.18-2.16-7.62-5.46l-4.84-11.33H480.33l-5.05,11.84a7.79,7.79,0,0,1-7.31,4.94,7.3,7.3,0,0,1-7.31-7.41A8.17,8.17,0,0,1,461.58,771.71Zm44.59-20-10-23.79-10,23.79Z" transform="translate(-47.8 -198.7)"/><path class="cls-1" d="M560.64,717.13a7.93,7.93,0,0,1,15.86,0V774.6a7.93,7.93,0,1,1-15.86,0Z" transform="translate(-47.8 -198.7)"/><path class="cls-1" d="M610,717.74a7.87,7.87,0,0,1,7.93-7.93h25c9.17,0,16.27,2.57,21,7.31,4,4,6.18,9.68,6.18,16.48v.2c0,11.33-5.66,18.33-14.42,21.94l11,13.39c1.55,2,2.58,3.6,2.58,6.08a7.38,7.38,0,0,1-7.52,7.31A9.51,9.51,0,0,1,654,778.4L638.5,758.83H625.83v15.76a7.93,7.93,0,1,1-15.86,0V717.74Zm31.93,27.09c7.72,0,12.15-4.12,12.15-10.2v-.2c0-6.8-4.74-10.3-12.46-10.3H625.83v20.7Z" transform="translate(-47.8 -198.7)"/><path class="cls-1" d="M699.87,717.74a7.87,7.87,0,0,1,7.93-7.93h21.53c17.2,0,27.6,10.19,27.6,24.92v.21c0,16.68-13,25.34-29.15,25.34h-12V774.6a7.93,7.93,0,1,1-15.86,0Zm28.43,28.43c7.93,0,12.57-4.74,12.57-10.92v-.2c0-7.11-4.94-10.92-12.87-10.92H715.74v22Z" transform="translate(-47.8 -198.7)"/><path class="cls-1" d="M780.92,746.07v-.21c0-20.49,16.17-37.28,38.42-37.28s38.21,16.58,38.21,37.07v.2c0,20.5-16.17,37.28-38.42,37.28S780.92,766.56,780.92,746.07Zm60,0v-.21c0-12.36-9.06-22.66-21.83-22.66s-21.63,10.09-21.63,22.45v.2c0,12.36,9.06,22.66,21.83,22.66S841,758.43,841,746.07Z" transform="translate(-47.8 -198.7)"/><path class="cls-1" d="M887.1,717.74a7.87,7.87,0,0,1,7.93-7.93h25c9.17,0,16.27,2.57,21,7.31,4,4,6.18,9.68,6.18,16.48v.2c0,11.33-5.67,18.33-14.42,21.94l11,13.39c1.55,2,2.57,3.6,2.57,6.08a7.38,7.38,0,0,1-7.52,7.31,9.51,9.51,0,0,1-7.83-4.12l-15.45-19.57H903v15.76a7.93,7.93,0,0,1-15.86,0V717.74ZM919,744.83c7.72,0,12.15-4.12,12.15-10.2v-.2c0-6.8-4.74-10.3-12.46-10.3H903v20.7Z" transform="translate(-47.8 -198.7)"/><path class="cls-1" d="M993.79,724.44H978.55a7.31,7.31,0,1,1,0-14.62h46.35a7.31,7.31,0,0,1,0,14.62h-15.24V774.6a7.93,7.93,0,1,1-15.86,0V724.44Z" transform="translate(-47.8 -198.7)"/><path class="cls-1" d="M81.82,866.33v-.08c0-8.23,6.15-15,14.72-15A15.06,15.06,0,0,1,106.93,855a1.81,1.81,0,0,1,.67,1.33,1.69,1.69,0,0,1-1.66,1.62,2,2,0,0,1-1.08-.37,11.94,11.94,0,0,0-8.36-3.32c-6.44,0-11.27,5.24-11.27,11.93v.08c0,6.73,4.86,12,11.27,12a12,12,0,0,0,8.65-3.53,1.5,1.5,0,0,1,1-.46,1.64,1.64,0,0,1,1.58,1.58,1.55,1.55,0,0,1-.54,1.16,14.91,14.91,0,0,1-10.81,4.28C88,881.3,81.82,874.69,81.82,866.33Z" transform="translate(-47.8 -198.7)"/><path class="cls-1" d="M120.73,853.15a1.64,1.64,0,1,1,3.28,0v26.19a1.64,1.64,0,1,1-3.28,0Z" transform="translate(-47.8 -198.7)"/><path class="cls-1" d="M146.88,854.73h-8.44a1.53,1.53,0,0,1-1.54-1.5,1.57,1.57,0,0,1,1.54-1.54h20.2a1.57,1.57,0,0,1,1.54,1.54,1.53,1.53,0,0,1-1.54,1.5H150.2v24.61a1.66,1.66,0,0,1-3.32,0V854.73Z" transform="translate(-47.8 -198.7)"/><path class="cls-1" d="M181.72,869.37l-10.81-15.13a2.11,2.11,0,0,1-.37-1.12,1.69,1.69,0,0,1,1.7-1.62,1.93,1.93,0,0,1,1.58,1l9.6,13.84,9.69-13.84a1.85,1.85,0,0,1,1.54-1,1.63,1.63,0,0,1,1.62,1.62,2.45,2.45,0,0,1-.46,1.2l-10.77,15v10.06a1.66,1.66,0,1,1-3.32,0v-10Z" transform="translate(-47.8 -198.7)"/><path class="cls-1" d="M228,853.15a1.64,1.64,0,1,1,3.28,0v11.47h16.79V853.15a1.64,1.64,0,1,1,3.28,0v26.19a1.64,1.64,0,1,1-3.28,0V867.7H231.27v11.64a1.64,1.64,0,1,1-3.28,0V853.15Z" transform="translate(-47.8 -198.7)"/><path class="cls-1" d="M264.94,866.33v-.08a14.75,14.75,0,0,1,14.88-15c8.85,0,14.8,6.94,14.8,15v.08a14.75,14.75,0,0,1-14.88,15C270.89,881.3,264.94,874.35,264.94,866.33Zm26.28,0v-.08c0-6.61-4.82-12-11.47-12s-11.39,5.32-11.39,11.93v.08c0,6.61,4.82,12,11.47,12S291.22,872.94,291.22,866.33Z" transform="translate(-47.8 -198.7)"/><path class="cls-1" d="M313.92,854.73h-8.44a1.53,1.53,0,0,1-1.54-1.5,1.57,1.57,0,0,1,1.54-1.54h20.2a1.57,1.57,0,0,1,1.54,1.54,1.53,1.53,0,0,1-1.54,1.5h-8.44v24.61a1.66,1.66,0,0,1-3.32,0Z" transform="translate(-47.8 -198.7)"/><path class="cls-1" d="M339.82,879.14V853.36a1.66,1.66,0,0,1,1.62-1.66h18.08a1.5,1.5,0,0,1,0,3H343.1v9.94h14.55a1.52,1.52,0,0,1,1.5,1.5,1.5,1.5,0,0,1-1.5,1.5H343.1v10.19h16.63a1.5,1.5,0,0,1,0,3H341.44A1.71,1.71,0,0,1,339.82,879.14Z" transform="translate(-47.8 -198.7)"/><path class="cls-1" d="M374.32,853.15a1.64,1.64,0,1,1,3.28,0v24.61h15.09a1.53,1.53,0,0,1,1.5,1.54,1.5,1.5,0,0,1-1.5,1.5H375.94a1.66,1.66,0,0,1-1.62-1.66Z" transform="translate(-47.8 -198.7)"/><path class="cls-1" d="M446.08,880.59l-3.78-4c-2.66,2.87-5.78,4.57-9.56,4.57-5.24,0-9.15-3.29-9.15-8.15V873c0-3.87,2.58-6.65,7-8.4-2-2.33-2.91-4.11-2.91-6.4v-.08c0-3.82,3.08-6.9,7.69-6.9a6.74,6.74,0,0,1,7.07,6.57v.08c0,3.7-2.62,6.07-6.86,7.57l6.65,6.77a37.79,37.79,0,0,0,3-5.53,1.48,1.48,0,0,1,2.83.63,1.78,1.78,0,0,1-.21.75,36.76,36.76,0,0,1-3.62,6.2l4,4.11a1.77,1.77,0,0,1,.62,1.29,1.51,1.51,0,0,1-1.54,1.54A1.84,1.84,0,0,1,446.08,880.59Zm-5.78-6-7.81-8c-3.87,1.41-5.57,3.78-5.57,6.23v.08c0,3.12,2.49,5.49,6.07,5.49C435.77,878.43,438.18,877,440.3,874.6ZM439.38,858v-.08a4,4,0,0,0-4.12-4,4.17,4.17,0,0,0-4.41,4.2v.08c0,1.7.71,3,2.91,5.36C437.47,862.3,439.38,860.55,439.38,858Z" transform="translate(-47.8 -198.7)"/><path class="cls-1" d="M479.5,877.3a1.49,1.49,0,0,1-.62-1.25,1.59,1.59,0,0,1,1.58-1.62,1.47,1.47,0,0,1,1,.38,13.22,13.22,0,0,0,9.19,3.45c3.91,0,6.49-2.08,6.49-5v-.08c0-2.7-1.46-4.24-7.57-5.53-6.69-1.45-9.77-3.62-9.77-8.4v-.08c0-4.57,4-7.94,9.56-7.94a14.86,14.86,0,0,1,9.27,2.87,1.7,1.7,0,0,1,.71,1.33,1.58,1.58,0,0,1-1.58,1.58,1.54,1.54,0,0,1-1-.29,12.14,12.14,0,0,0-7.52-2.53c-3.78,0-6.19,2.08-6.19,4.7V859c0,2.74,1.5,4.28,7.9,5.65s9.48,3.78,9.48,8.23V873c0,5-4.16,8.23-9.93,8.23A17,17,0,0,1,479.5,877.3Z" transform="translate(-47.8 -198.7)"/><path class="cls-1" d="M513.8,853.36a1.66,1.66,0,0,1,1.62-1.66h9.27c6.57,0,10.89,3.49,10.89,9.23V861c0,6.28-5.24,9.52-11.43,9.52h-7.07v8.81a1.64,1.64,0,1,1-3.28,0v-26Zm10.48,14.18c4.82,0,8-2.58,8-6.4v-.08c0-4.16-3.12-6.32-7.81-6.32h-7.36v12.81h7.19Z" transform="translate(-47.8 -198.7)"/><path class="cls-1" d="M543.73,878.63l11.81-25.81a2.15,2.15,0,0,1,2.08-1.45h.17a2.1,2.1,0,0,1,2,1.45l11.81,25.78a2.12,2.12,0,0,1,.21.83,1.58,1.58,0,0,1-1.58,1.58,1.79,1.79,0,0,1-1.62-1.21l-3-6.69h-16l-3,6.78a1.64,1.64,0,0,1-1.58,1.12,1.5,1.5,0,0,1-1.5-1.5A1.71,1.71,0,0,1,543.73,878.63Zm20.58-8.52-6.69-14.88-6.69,14.88Z" transform="translate(-47.8 -198.7)"/><path class="cls-1" d="M650.38,853.36A1.66,1.66,0,0,1,652,851.7h9.27c6.57,0,10.89,3.49,10.89,9.23V861c0,6.28-5.24,9.52-11.43,9.52h-7.07v8.81a1.64,1.64,0,1,1-3.28,0v-26Zm10.48,14.18c4.82,0,8-2.58,8-6.4v-.08c0-4.16-3.12-6.32-7.81-6.32h-7.36v12.81h7.19Z" transform="translate(-47.8 -198.7)"/><path class="cls-1" d="M684.81,853.15a1.64,1.64,0,1,1,3.28,0v11.47h16.79V853.15a1.64,1.64,0,1,1,3.28,0v26.19a1.64,1.64,0,1,1-3.28,0V867.7H688.09v11.64a1.64,1.64,0,1,1-3.28,0Z" transform="translate(-47.8 -198.7)"/><path class="cls-1" d="M723.06,853.19a1.65,1.65,0,0,1,1.62-1.62h.46a2,2,0,0,1,1.66,1l17.67,22.53V853.11a1.6,1.6,0,1,1,3.2,0v26.27a1.47,1.47,0,0,1-1.5,1.54H746a2.22,2.22,0,0,1-1.7-1l-18-23.07v22.53a1.6,1.6,0,1,1-3.2,0Z" transform="translate(-47.8 -198.7)"/><path class="cls-1" d="M761.26,866.33v-.08a14.75,14.75,0,0,1,14.88-15c8.85,0,14.8,6.94,14.8,15v.08a14.75,14.75,0,0,1-14.88,15C767.2,881.3,761.26,874.35,761.26,866.33Zm26.27,0v-.08c0-6.61-4.82-12-11.47-12s-11.39,5.32-11.39,11.93v.08c0,6.61,4.82,12,11.47,12S787.53,872.94,787.53,866.33Z" transform="translate(-47.8 -198.7)"/><path class="cls-1" d="M804.54,853.19a1.65,1.65,0,0,1,1.62-1.62h.37a1.79,1.79,0,0,1,1.54.87l10.39,15.63,10.39-15.63a1.76,1.76,0,0,1,1.54-.87h.37a1.65,1.65,0,0,1,1.62,1.62v26.15a1.66,1.66,0,0,1-1.62,1.66,1.69,1.69,0,0,1-1.66-1.66v-21.7l-9.31,13.68a1.6,1.6,0,0,1-1.37.83,1.67,1.67,0,0,1-1.41-.83l-9.27-13.63v21.7a1.6,1.6,0,1,1-3.2,0Z" transform="translate(-47.8 -198.7)"/><path class="cls-1" d="M866.4,853.36A1.66,1.66,0,0,1,868,851.7h9.27c6.57,0,10.89,3.49,10.89,9.23V861c0,6.28-5.24,9.52-11.43,9.52h-7.07v8.81a1.64,1.64,0,1,1-3.28,0v-26Zm10.47,14.18c4.82,0,8-2.58,8-6.4v-.08c0-4.16-3.12-6.32-7.81-6.32h-7.36v12.81h7.19Z" transform="translate(-47.8 -198.7)"/><path class="cls-1" d="M900.82,879.14V853.36a1.66,1.66,0,0,1,1.62-1.66h18.08a1.5,1.5,0,0,1,0,3H904.1v9.94h14.55a1.52,1.52,0,0,1,1.5,1.5,1.5,1.5,0,0,1-1.5,1.5H904.1v10.19h16.63a1.5,1.5,0,0,1,0,3H902.44A1.71,1.71,0,0,1,900.82,879.14Z" transform="translate(-47.8 -198.7)"/><path class="cls-1" d="M935.33,853.19a1.65,1.65,0,0,1,1.62-1.62h.46a2,2,0,0,1,1.66,1l17.67,22.53V853.11a1.6,1.6,0,1,1,3.2,0v26.27a1.47,1.47,0,0,1-1.5,1.54h-.17a2.2,2.2,0,0,1-1.7-1l-18-23.07v22.53a1.6,1.6,0,1,1-3.2,0Z" transform="translate(-47.8 -198.7)"/><path class="cls-1" d="M974.82,853.15a1.64,1.64,0,1,1,3.28,0v11.47h16.79V853.15a1.64,1.64,0,1,1,3.28,0v26.19a1.64,1.64,0,1,1-3.28,0V867.7H978.1v11.64a1.64,1.64,0,1,1-3.28,0Z" transform="translate(-47.8 -198.7)"/><circle class="cls-1" cx="560.53" cy="667.55" r="5.42"/></svg>