<?xml version="1.0" encoding="utf-8"?>
<!-- Generator: Adobe Illustrator 25.2.0, SVG Export Plug-In . SVG Version: 6.00 Build 0)  -->
<svg version="1.1" id="Layer_1" xmlns="http://www.w3.org/2000/svg" xmlns:xlink="http://www.w3.org/1999/xlink" x="0px" y="0px"
	 viewBox="0 0 1080 1080" style="enable-background:new 0 0 1080 1080;" xml:space="preserve">
<style type="text/css">
	.st0{fill:#83003F;}
	.st1{fill:#4F4B4C;}
	.st2{fill:#FFFFFF;}
	.st3{fill:#29388F;}
	.st4{fill:#ED1C24;}
</style>
<g>
	<g>
		<g>
			<path class="st0" d="M636.16,291.45c12.52-1.21,24.55-2.78,36.63-3.42c9.88-0.52,19.97-0.96,29.73,0.39
				c15.48,2.13,20.47,13.49,13.1,27.39c-5.58,10.51-13.93,18.65-23,26.04c-12.42,10.1-25.02,19.99-37.65,29.82
				c-2.67,2.06-3.42,4.08-2.92,7.48c4.24,28.27,8.55,56.52,12.11,84.88c1.05,8.36,0.56,17.13-0.64,25.51
				c-2.01,13.85-9.77,20.69-23.69,22.07c-11.59,1.15-22.9-0.96-34.12-3.76c-27.48-6.85-53.02-18.64-77.99-31.67
				c-4.89-2.56-8.16-2.65-12.72,0.86c-14.27,10.96-28.74,21.77-43.67,31.84c-12.39,8.36-25.74,15.17-41.08,16.53
				c-2.01,0.19-4.05,0.24-6.04,0.05c-10.34-0.94-15.69-6.65-13.87-16.78c1.65-9.24,4.05-18.65,7.97-27.14
				c12.14-26.37,24.5-52.71,38.02-78.4c22.12-42.07,44.77-83.88,68.09-125.3c11.19-19.84,24.07-38.78,36.94-57.6
				c4.19-6.12,10.34-11.22,16.44-15.61c9.19-6.62,17.96-5.26,26.05,2.6c8.27,8.01,13.62,17.93,16.99,28.6
				c5.22,16.56,9.43,33.44,14.04,50.2C635.34,287.65,635.66,289.3,636.16,291.45 M620.74,304.62c-34.4,3.59-67.64,7.01-100.85,10.67
				c-1.5,0.16-3.34,2.04-4.13,3.59c-17.82,35.22-35.47,70.51-53.27,105.73c-1.72,3.39-1.21,5.24,2.01,7.06
				c16.91,9.55,33.79,19.17,50.57,28.92c2.65,1.55,4.35,1.05,6.59-0.66c10.62-8.11,21.46-15.94,32.07-24.06
				c25.54-19.58,51.01-39.22,76.41-58.97c1.54-1.21,3.2-3.83,2.95-5.51c-3.09-21.21-6.48-42.37-9.95-63.53
				C622.92,306.57,621.42,305.49,620.74,304.62 M635.17,385.36c-35.78,27.51-70.75,54.4-105.99,81.52c1.08,0.85,1.49,1.33,2.02,1.58
				c19.14,9.65,38.38,19.25,59.19,24.71c11.76,3.09,24,4.74,36.14,5.93c8.11,0.8,13.99-3.7,15.78-11.62
				c1.66-7.31,2.81-15.08,2.26-22.51c-1.41-19.17-3.81-38.29-5.99-57.41C637.76,400.4,636.41,393.3,635.17,385.36 M523.92,303.3
				c32.75-3.57,64.61-7.03,96.72-10.52c-0.06-1.33,0.05-2.42-0.19-3.42c-3.67-15.37-6.98-30.85-11.26-46.05
				c-1.91-6.78-5.26-13.3-8.94-19.34c-6.12-10.02-14.26-11.31-22.75-3.26c-5.9,5.6-11.23,12.11-15.58,18.98
				c-11.26,17.85-21.85,36.11-32.68,54.23C527.53,296.78,525.95,299.71,523.92,303.3 M457.84,435.65c-0.47,0.64-1.07,1.18-1.35,1.83
				c-7.64,17.51-15.37,34.95-22.76,52.55c-1.46,3.5-2.01,7.53-2.27,11.36c-0.49,6.92,3.12,10.23,9.72,8.39
				c6.07-1.68,12.33-3.72,17.6-7.03c16.82-10.57,33.22-21.82,49.79-32.79c0.85-0.56,1.79-1.04,2.98-1.72
				C492.99,456.99,475.52,446.38,457.84,435.65 M649.31,363.76c3.25-2.51,5.82-4.39,8.25-6.43c13.24-11,26.59-21.85,39.55-33.16
				c3.53-3.07,6.26-7.32,8.56-11.48c3.12-5.63,1.08-10.01-5.16-11.78c-2.93-0.83-6.13-1.3-9.18-1.18
				c-11.31,0.48-22.6,1.25-33.9,2.02c-6.12,0.41-12.23,1.04-18.87,1.62C642.17,323.57,645.65,343.17,649.31,363.76"/>
		</g>
		<g>
			<path class="st0" d="M560.79,198.7c-16.8,12.19-26.42,28.85-36.47,45.02c-32.75,52.64-63.05,106.7-91.91,161.57
				c-13.43,25.55-25.99,51.58-38.56,77.57c-3.5,7.22-5.88,15.03-8.19,22.76c-2.42,8.14-2.82,16.09,6.76,20.89
				c-0.22,0.33-0.44,0.66-0.66,0.99c-4.05-0.63-8.2-0.83-12.08-1.98c-7.34-2.15-11.91-7.62-11.15-15.23
				c0.76-7.59,1.99-15.66,5.32-22.37c12.89-26.01,26.59-51.64,40.27-77.24c2.13-4,1.85-5.85-1.85-8.55
				c-14.46-10.51-28.72-21.3-40.57-34.87c-5.91-6.76-10.95-13.95-10.65-23.58c0.24-7.8,3.67-13.62,10.21-17.74
				c8.02-5.05,17.16-6.24,26.21-7.58c23.66-3.5,47.36-6.7,71-10.32c2.12-0.33,4.5-2.51,5.72-4.47
				c12.93-20.67,25.21-41.76,38.57-62.13c7.36-11.23,16.06-21.69,24.9-31.86C543.23,203.16,550.81,199.32,560.79,198.7
				 M420.19,400.62c14.87-27.28,29.08-53.35,43.52-79.78c-2.29,0-3.84-0.17-5.37,0.02c-18.34,2.29-36.71,4.47-55.01,7.01
				c-7.37,1.02-14.82,2.23-21.87,4.48c-10.57,3.37-13.44,10.82-8.86,20.9c1.27,2.81,2.81,5.63,4.83,7.92
				c5.1,5.85,10.18,11.78,15.92,16.97C401.82,385.81,410.85,392.86,420.19,400.62"/>
		</g>
	</g>
	<g>
		<path class="st0" d="M47.8,717.74c0-4.43,3.5-7.93,7.93-7.93h20.19c22.66,0,38.31,15.55,38.31,35.84v0.2
			c0,20.29-15.65,36.05-38.31,36.05H55.73c-4.43,0-7.93-3.5-7.93-7.93V717.74z M75.92,767.59c12.98,0,21.73-8.75,21.73-21.52v-0.21
			c0-12.77-8.75-21.73-21.73-21.73H63.66v43.46H75.92z"/>
		<path class="st0" d="M136.67,771.71l25.13-56.75c1.75-3.91,4.94-6.28,9.27-6.28H172c4.32,0,7.41,2.37,9.17,6.28l25.13,56.75
			c0.52,1.13,0.82,2.16,0.82,3.19c0,4.22-3.3,7.62-7.52,7.62c-3.71,0-6.18-2.16-7.62-5.46l-4.84-11.33h-31.72l-5.05,11.84
			c-1.34,3.09-4.02,4.94-7.31,4.94c-4.12,0-7.31-3.3-7.31-7.41C135.75,773.98,136.16,772.84,136.67,771.71z M181.27,751.73
			l-9.99-23.79l-9.99,23.79H181.27z"/>
		<path class="st0" d="M235.02,717.74c0-4.43,3.5-7.93,7.93-7.93h25.03c9.17,0,16.27,2.57,21.01,7.31
			c4.02,4.02,6.18,9.68,6.18,16.48v0.2c0,11.33-5.67,18.33-14.42,21.94l11.02,13.39c1.55,1.95,2.57,3.6,2.57,6.08
			c0,4.43-3.71,7.31-7.52,7.31c-3.6,0-5.97-1.75-7.83-4.12l-15.45-19.57h-12.67v15.76c0,4.43-3.5,7.93-7.93,7.93
			c-4.43,0-7.93-3.5-7.93-7.93V717.74z M266.95,744.83c7.72,0,12.15-4.12,12.15-10.2v-0.2c0-6.8-4.74-10.3-12.46-10.3h-15.76v20.7
			H266.95z"/>
		<path class="st0" d="M320.9,771.71l25.13-56.75c1.75-3.91,4.94-6.28,9.27-6.28h0.93c4.32,0,7.41,2.37,9.17,6.28l25.13,56.75
			c0.52,1.13,0.82,2.16,0.82,3.19c0,4.22-3.3,7.62-7.52,7.62c-3.71,0-6.18-2.16-7.62-5.46l-4.84-11.33h-31.72l-5.05,11.84
			c-1.34,3.09-4.02,4.94-7.31,4.94c-4.12,0-7.31-3.3-7.31-7.41C319.98,773.98,320.39,772.84,320.9,771.71z M365.5,751.73
			l-9.99-23.79l-9.99,23.79H365.5z"/>
		<path class="st0" d="M461.58,771.71l25.13-56.75c1.75-3.91,4.94-6.28,9.27-6.28h0.93c4.33,0,7.42,2.37,9.17,6.28l25.13,56.75
			c0.52,1.13,0.82,2.16,0.82,3.19c0,4.22-3.3,7.62-7.52,7.62c-3.71,0-6.18-2.16-7.62-5.46l-4.84-11.33h-31.72l-5.05,11.84
			c-1.34,3.09-4.02,4.94-7.31,4.94c-4.12,0-7.31-3.3-7.31-7.41C460.65,773.98,461.06,772.84,461.58,771.71z M506.17,751.73
			l-9.99-23.79l-9.99,23.79H506.17z"/>
		<path class="st0" d="M560.64,717.13c0-4.43,3.5-7.93,7.93-7.93c4.43,0,7.93,3.5,7.93,7.93v57.47c0,4.43-3.5,7.93-7.93,7.93
			c-4.43,0-7.93-3.5-7.93-7.93V717.13z"/>
		<path class="st0" d="M609.97,717.74c0-4.43,3.5-7.93,7.93-7.93h25.03c9.17,0,16.27,2.57,21.01,7.31
			c4.02,4.02,6.18,9.68,6.18,16.48v0.2c0,11.33-5.66,18.33-14.42,21.94l11.02,13.39c1.55,1.95,2.58,3.6,2.58,6.08
			c0,4.43-3.71,7.31-7.52,7.31c-3.6,0-5.97-1.75-7.83-4.12l-15.45-19.57h-12.67v15.76c0,4.43-3.5,7.93-7.93,7.93
			s-7.93-3.5-7.93-7.93V717.74z M641.9,744.83c7.72,0,12.15-4.12,12.15-10.2v-0.2c0-6.8-4.74-10.3-12.46-10.3h-15.76v20.7H641.9z"/>
		<path class="st0" d="M699.87,717.74c0-4.43,3.5-7.93,7.93-7.93h21.53c17.2,0,27.6,10.19,27.6,24.92v0.21
			c0,16.68-12.98,25.34-29.15,25.34h-12.05v14.32c0,4.43-3.5,7.93-7.93,7.93c-4.43,0-7.93-3.5-7.93-7.93V717.74z M728.3,746.17
			c7.93,0,12.57-4.74,12.57-10.92v-0.2c0-7.11-4.94-10.92-12.87-10.92h-12.26v22.04H728.3z"/>
		<path class="st0" d="M780.92,746.07v-0.21c0-20.49,16.17-37.28,38.42-37.28s38.21,16.58,38.21,37.07v0.2
			c0,20.5-16.17,37.28-38.42,37.28S780.92,766.56,780.92,746.07z M840.96,746.07v-0.21c0-12.36-9.06-22.66-21.83-22.66
			s-21.63,10.09-21.63,22.45v0.2c0,12.36,9.06,22.66,21.83,22.66C832.11,768.52,840.96,758.43,840.96,746.07z"/>
		<path class="st0" d="M887.1,717.74c0-4.43,3.5-7.93,7.93-7.93h25.03c9.17,0,16.27,2.57,21.01,7.31c4.02,4.02,6.18,9.68,6.18,16.48
			v0.2c0,11.33-5.67,18.33-14.42,21.94l11.02,13.39c1.55,1.95,2.57,3.6,2.57,6.08c0,4.43-3.71,7.31-7.52,7.31
			c-3.6,0-5.97-1.75-7.83-4.12l-15.45-19.57h-12.67v15.76c0,4.43-3.5,7.93-7.93,7.93c-4.43,0-7.93-3.5-7.93-7.93V717.74z
			 M919.02,744.83c7.72,0,12.15-4.12,12.15-10.2v-0.2c0-6.8-4.74-10.3-12.46-10.3h-15.76v20.7H919.02z"/>
		<path class="st0" d="M993.79,724.44h-15.24c-4.02,0-7.31-3.3-7.31-7.31s3.3-7.31,7.31-7.31h46.35c4.02,0,7.31,3.3,7.31,7.31
			s-3.3,7.31-7.31,7.31h-15.24v50.16c0,4.43-3.5,7.93-7.93,7.93c-4.43,0-7.93-3.5-7.93-7.93V724.44z"/>
	</g>
	<g>
		<path class="st1" d="M81.82,866.33v-0.08c0-8.23,6.15-15.05,14.72-15.05c4.7,0,7.69,1.54,10.39,3.78
			c0.33,0.29,0.67,0.75,0.67,1.33c0,0.87-0.79,1.62-1.66,1.62c-0.46,0-0.83-0.21-1.08-0.37c-2.25-1.99-4.78-3.32-8.36-3.32
			c-6.44,0-11.27,5.24-11.27,11.93v0.08c0,6.73,4.86,12.01,11.27,12.01c3.62,0,6.15-1.25,8.65-3.53c0.25-0.25,0.62-0.46,1.04-0.46
			c0.83,0,1.58,0.75,1.58,1.58c0,0.5-0.25,0.91-0.54,1.16c-2.87,2.62-6.03,4.28-10.81,4.28C88.01,881.3,81.82,874.69,81.82,866.33z"
			/>
		<path class="st1" d="M120.73,853.15c0-0.91,0.75-1.66,1.62-1.66c0.91,0,1.66,0.75,1.66,1.66v26.19c0,0.91-0.75,1.66-1.66,1.66
			c-0.87,0-1.62-0.75-1.62-1.66V853.15z"/>
		<path class="st1" d="M146.88,854.73h-8.44c-0.83,0-1.54-0.66-1.54-1.5c0-0.83,0.71-1.54,1.54-1.54h20.2
			c0.83,0,1.54,0.71,1.54,1.54c0,0.83-0.71,1.5-1.54,1.5h-8.44v24.61c0,0.91-0.75,1.66-1.66,1.66c-0.91,0-1.66-0.75-1.66-1.66
			V854.73z"/>
		<path class="st1" d="M181.72,869.37l-10.81-15.13c-0.21-0.33-0.37-0.71-0.37-1.12c0-0.88,0.79-1.62,1.7-1.62
			c0.71,0,1.16,0.42,1.58,1l9.6,13.84l9.69-13.84c0.41-0.58,0.83-1,1.54-1c0.91,0,1.62,0.75,1.62,1.62c0,0.42-0.25,0.87-0.46,1.2
			l-10.77,14.97v10.06c0,0.91-0.75,1.66-1.66,1.66c-0.91,0-1.66-0.75-1.66-1.66V869.37z"/>
		<path class="st1" d="M227.99,853.15c0-0.91,0.75-1.66,1.62-1.66c0.91,0,1.66,0.75,1.66,1.66v11.47h16.79v-11.47
			c0-0.91,0.75-1.66,1.66-1.66c0.87,0,1.62,0.75,1.62,1.66v26.19c0,0.91-0.75,1.66-1.62,1.66c-0.91,0-1.66-0.75-1.66-1.66V867.7
			h-16.79v11.64c0,0.91-0.75,1.66-1.66,1.66c-0.87,0-1.62-0.75-1.62-1.66V853.15z"/>
		<path class="st1" d="M264.94,866.33v-0.08c0-8.02,6.03-15.05,14.88-15.05c8.85,0,14.8,6.94,14.8,14.96v0.08
			c0,8.02-6.03,15.05-14.88,15.05C270.89,881.3,264.94,874.35,264.94,866.33z M291.22,866.33v-0.08c0-6.61-4.82-12.01-11.47-12.01
			c-6.65,0-11.39,5.32-11.39,11.93v0.08c0,6.61,4.82,12.01,11.47,12.01S291.22,872.94,291.22,866.33z"/>
		<path class="st1" d="M313.92,854.73h-8.44c-0.83,0-1.54-0.66-1.54-1.5c0-0.83,0.71-1.54,1.54-1.54h20.2
			c0.83,0,1.54,0.71,1.54,1.54c0,0.83-0.71,1.5-1.54,1.5h-8.44v24.61c0,0.91-0.75,1.66-1.66,1.66c-0.91,0-1.66-0.75-1.66-1.66
			V854.73z"/>
		<path class="st1" d="M339.82,879.14v-25.78c0-0.91,0.75-1.66,1.62-1.66h18.08c0.83,0,1.5,0.67,1.5,1.5c0,0.83-0.67,1.5-1.5,1.5
			H343.1v9.94h14.55c0.83,0,1.5,0.71,1.5,1.5c0,0.83-0.67,1.5-1.5,1.5H343.1v10.19h16.63c0.83,0,1.5,0.66,1.5,1.5
			c0,0.83-0.67,1.5-1.5,1.5h-18.29C340.57,880.8,339.82,880.05,339.82,879.14z"/>
		<path class="st1" d="M374.32,853.15c0-0.91,0.75-1.66,1.62-1.66c0.91,0,1.66,0.75,1.66,1.66v24.61h15.09c0.83,0,1.5,0.71,1.5,1.54
			c0,0.83-0.67,1.5-1.5,1.5h-16.75c-0.87,0-1.62-0.75-1.62-1.66V853.15z"/>
		<path class="st1" d="M446.08,880.59l-3.78-3.95c-2.66,2.87-5.78,4.57-9.56,4.57c-5.24,0-9.15-3.29-9.15-8.15v-0.08
			c0-3.87,2.58-6.65,7.03-8.4c-2-2.33-2.91-4.11-2.91-6.4v-0.08c0-3.82,3.08-6.9,7.69-6.9c4.07,0,7.07,2.95,7.07,6.57v0.08
			c0,3.7-2.62,6.07-6.86,7.57l6.65,6.77c1.08-1.62,2.12-3.49,3.03-5.53c0.17-0.33,0.58-0.87,1.33-0.87c0.83,0,1.5,0.66,1.5,1.5
			c0,0.21-0.08,0.5-0.21,0.75c-1.08,2.29-2.29,4.41-3.62,6.2l4.03,4.11c0.37,0.42,0.62,0.71,0.62,1.29c0,0.88-0.67,1.54-1.54,1.54
			C446.83,881.17,446.49,880.96,446.08,880.59z M440.3,874.6l-7.81-7.98c-3.87,1.41-5.57,3.78-5.57,6.23v0.08
			c0,3.12,2.49,5.49,6.07,5.49C435.77,878.43,438.18,876.97,440.3,874.6z M439.38,858.02v-0.08c0-2.33-1.75-4.03-4.12-4.03
			c-2.62,0-4.41,1.83-4.41,4.2v0.08c0,1.7,0.71,2.99,2.91,5.36C437.47,862.3,439.38,860.55,439.38,858.02z"/>
		<path class="st1" d="M479.5,877.3c-0.37-0.25-0.62-0.71-0.62-1.25c0-0.91,0.71-1.62,1.58-1.62c0.41,0,0.79,0.17,1,0.38
			c2.74,2.33,5.49,3.45,9.19,3.45c3.91,0,6.49-2.08,6.49-4.95v-0.08c0-2.7-1.46-4.24-7.57-5.53c-6.69-1.45-9.77-3.62-9.77-8.4v-0.08
			c0-4.57,4.03-7.94,9.56-7.94c3.82,0,6.61,0.96,9.27,2.87c0.33,0.25,0.71,0.71,0.71,1.33c0,0.88-0.71,1.58-1.58,1.58
			c-0.37,0-0.67-0.08-0.96-0.29c-2.45-1.79-4.82-2.53-7.52-2.53c-3.78,0-6.19,2.08-6.19,4.7v0.08c0,2.74,1.5,4.28,7.9,5.65
			c6.49,1.41,9.48,3.78,9.48,8.23v0.08c0,4.99-4.16,8.23-9.93,8.23C486.28,881.21,482.75,879.88,479.5,877.3z"/>
		<path class="st1" d="M513.8,853.36c0-0.91,0.75-1.66,1.62-1.66h9.27c6.57,0,10.89,3.49,10.89,9.23v0.08
			c0,6.28-5.24,9.52-11.43,9.52h-7.07v8.81c0,0.91-0.75,1.66-1.66,1.66c-0.87,0-1.62-0.75-1.62-1.66V853.36z M524.28,867.54
			c4.82,0,7.98-2.58,7.98-6.4v-0.08c0-4.16-3.12-6.32-7.81-6.32h-7.36v12.81H524.28z"/>
		<path class="st1" d="M543.73,878.63l11.81-25.81c0.42-0.91,1.04-1.45,2.08-1.45h0.17c1,0,1.66,0.54,2.04,1.45l11.81,25.78
			c0.13,0.29,0.21,0.58,0.21,0.83c0,0.88-0.71,1.58-1.58,1.58c-0.79,0-1.33-0.54-1.62-1.21l-3.03-6.69h-15.96l-3.03,6.78
			c-0.29,0.71-0.83,1.12-1.58,1.12c-0.83,0-1.5-0.67-1.5-1.5C543.53,879.26,543.57,878.97,543.73,878.63z M564.31,870.11
			l-6.69-14.88l-6.69,14.88H564.31z"/>
	</g>
	<g>
		<g>
			<path class="st0" d="M650.38,853.36c0-0.91,0.75-1.66,1.62-1.66h9.27c6.57,0,10.89,3.49,10.89,9.23v0.08
				c0,6.28-5.24,9.52-11.43,9.52h-7.07v8.81c0,0.91-0.75,1.66-1.66,1.66c-0.87,0-1.62-0.75-1.62-1.66V853.36z M660.86,867.54
				c4.82,0,7.98-2.58,7.98-6.4v-0.08c0-4.16-3.12-6.32-7.81-6.32h-7.36v12.81H660.86z"/>
			<path class="st0" d="M684.81,853.15c0-0.91,0.75-1.66,1.62-1.66c0.91,0,1.66,0.75,1.66,1.66v11.47h16.79v-11.47
				c0-0.91,0.75-1.66,1.66-1.66c0.87,0,1.62,0.75,1.62,1.66v26.19c0,0.91-0.75,1.66-1.62,1.66c-0.91,0-1.66-0.75-1.66-1.66V867.7
				h-16.79v11.64c0,0.91-0.75,1.66-1.66,1.66c-0.87,0-1.62-0.75-1.62-1.66V853.15z"/>
			<path class="st0" d="M723.06,853.19c0-0.87,0.75-1.62,1.62-1.62h0.46c0.75,0,1.21,0.37,1.66,0.96l17.67,22.53v-21.95
				c0-0.88,0.71-1.62,1.62-1.62c0.87,0,1.58,0.75,1.58,1.62v26.27c0,0.88-0.62,1.54-1.5,1.54H746c-0.71,0-1.2-0.41-1.7-1
				l-18.04-23.07v22.53c0,0.88-0.71,1.62-1.62,1.62c-0.87,0-1.58-0.75-1.58-1.62V853.19z"/>
			<path class="st0" d="M761.26,866.33v-0.08c0-8.02,6.03-15.05,14.88-15.05c8.85,0,14.8,6.94,14.8,14.96v0.08
				c0,8.02-6.03,15.05-14.88,15.05C767.2,881.3,761.26,874.35,761.26,866.33z M787.53,866.33v-0.08c0-6.61-4.82-12.01-11.47-12.01
				s-11.39,5.32-11.39,11.93v0.08c0,6.61,4.82,12.01,11.47,12.01C782.79,878.26,787.53,872.94,787.53,866.33z"/>
			<path class="st0" d="M804.54,853.19c0-0.87,0.75-1.62,1.62-1.62h0.37c0.71,0,1.21,0.37,1.54,0.87l10.39,15.63l10.39-15.63
				c0.33-0.54,0.87-0.87,1.54-0.87h0.37c0.87,0,1.62,0.75,1.62,1.62v26.15c0,0.91-0.75,1.66-1.62,1.66c-0.92,0-1.66-0.79-1.66-1.66
				v-21.7l-9.31,13.68c-0.37,0.54-0.79,0.83-1.37,0.83c-0.58,0-1.04-0.29-1.41-0.83l-9.27-13.63v21.7c0,0.92-0.71,1.62-1.62,1.62
				c-0.87,0-1.58-0.71-1.58-1.62V853.19z"/>
			<path class="st0" d="M866.4,853.36c0-0.91,0.75-1.66,1.62-1.66h9.27c6.57,0,10.89,3.49,10.89,9.23v0.08
				c0,6.28-5.24,9.52-11.43,9.52h-7.07v8.81c0,0.91-0.75,1.66-1.66,1.66c-0.87,0-1.62-0.75-1.62-1.66V853.36z M876.87,867.54
				c4.82,0,7.98-2.58,7.98-6.4v-0.08c0-4.16-3.12-6.32-7.81-6.32h-7.36v12.81H876.87z"/>
			<path class="st0" d="M900.82,879.14v-25.78c0-0.91,0.75-1.66,1.62-1.66h18.08c0.83,0,1.5,0.67,1.5,1.5c0,0.83-0.67,1.5-1.5,1.5
				H904.1v9.94h14.55c0.83,0,1.5,0.71,1.5,1.5c0,0.83-0.67,1.5-1.5,1.5H904.1v10.19h16.63c0.83,0,1.5,0.66,1.5,1.5
				c0,0.83-0.67,1.5-1.5,1.5h-18.29C901.57,880.8,900.82,880.05,900.82,879.14z"/>
			<path class="st0" d="M935.33,853.19c0-0.87,0.75-1.62,1.62-1.62h0.46c0.75,0,1.21,0.37,1.66,0.96l17.67,22.53v-21.95
				c0-0.88,0.71-1.62,1.62-1.62c0.87,0,1.58,0.75,1.58,1.62v26.27c0,0.88-0.62,1.54-1.5,1.54h-0.17c-0.71,0-1.21-0.41-1.7-1
				l-18.04-23.07v22.53c0,0.88-0.71,1.62-1.62,1.62c-0.87,0-1.58-0.75-1.58-1.62V853.19z"/>
			<path class="st0" d="M974.82,853.15c0-0.91,0.75-1.66,1.62-1.66c0.91,0,1.66,0.75,1.66,1.66v11.47h16.79v-11.47
				c0-0.91,0.75-1.66,1.66-1.66c0.87,0,1.62,0.75,1.62,1.66v26.19c0,0.91-0.75,1.66-1.62,1.66c-0.92,0-1.66-0.75-1.66-1.66V867.7
				H978.1v11.64c0,0.91-0.75,1.66-1.66,1.66c-0.87,0-1.62-0.75-1.62-1.66V853.15z"/>
		</g>
		<g>
			<circle class="st0" cx="608.33" cy="866.25" r="5.42"/>
		</g>
	</g>
</g>
</svg>
